# xmcd CD database file
#
# Track frame offsets:
#	150
#	11933
#	33941
#	57673
#	79677
#	95259
#	120901
#	146230
#
# Disc length: 2098 seconds
#
# Revision: 0
# Processed by: cddbd v1.5.2PL0 Copyright (c) Steve Scherf et al.
# Submitted via: CDex 1.70beta2
#
DISCID=65083008
DTITLE=Alstroemeria Records - The Brilliant Flowers
DYEAR=2009
DGENRE=東方アレンジ
TTITLE0=Intro
TTITLE1=Highly Responsive to Prayers
TTITLE2=The Brilliant Flowers
TTITLE3=Second Hand
TTITLE4=Course
TTITLE5=As For Myself
TTITLE6=Voile, the Magic Library (2009AW Re-arranged)
TTITLE7=Outro
EXTD=YEAR: 2009
EXTT0=
EXTT1=
EXTT2=
EXTT3=
EXTT4=
EXTT5=
EXTT6=
EXTT7=
PLAYORDER=
